<svg width="39" height="40" viewBox="0 0 39 40" fill="none" xmlns="http://www.w3.org/2000/svg">
<path d="M37.9945 14.993C37.2226 14.1122 36.1094 13.6068 34.9394 13.6068H34.0196C33.2054 6.25987 26.9815 0.606262 19.5014 0.606262C12.0212 0.606262 5.79727 6.25987 4.98312 13.6068H4.06334C2.8933 13.6068 1.78014 14.1122 1.00824 14.993C0.236335 15.8738 -0.117927 17.0454 0.0348286 18.2074L1.85489 31.8514C2.44478 36.2732 6.25391 39.6063 10.7147 39.6063H28.2848C32.7456 39.6063 36.5547 36.2716 37.143 31.8514L38.9646 18.2057C39.119 17.0454 38.7631 15.8721 37.9912 14.9914L37.9945 14.993ZM19.5014 2.23133C26.0893 2.23133 31.582 7.16341 32.388 13.6068H6.61467C7.41908 7.16341 12.9134 2.23133 19.5014 2.23133ZM37.3542 17.9912L35.5341 31.6353C35.0531 35.2543 31.9363 37.9812 28.2864 37.9812H10.7163C7.06644 37.9812 3.94958 35.2527 3.46694 31.6353L1.64851 17.9929C1.55425 17.2941 1.76714 16.5921 2.23028 16.0623C2.69342 15.5325 3.36132 15.2302 4.06334 15.2302H34.9394C35.6414 15.2302 36.3093 15.5341 36.7724 16.0623C37.2356 16.5904 37.4485 17.2941 37.3542 17.9912ZM20.3139 20.9196V32.2951C20.3139 32.7436 19.9499 33.1076 19.5014 33.1076C19.0528 33.1076 18.6888 32.7436 18.6888 32.2951V20.9196C18.6888 20.4711 19.0528 20.1071 19.5014 20.1071C19.9499 20.1071 20.3139 20.4711 20.3139 20.9196ZM29.2517 20.9196V32.2951C29.2517 32.7436 28.8877 33.1076 28.4392 33.1076C27.9906 33.1076 27.6266 32.7436 27.6266 32.2951V20.9196C27.6266 20.4711 27.9906 20.1071 28.4392 20.1071C28.8877 20.1071 29.2517 20.4711 29.2517 20.9196ZM11.3761 20.9196V32.2951C11.3761 32.7436 11.0121 33.1076 10.5636 33.1076C10.115 33.1076 9.75103 32.7436 9.75103 32.2951V20.9196C9.75103 20.4711 10.115 20.1071 10.5636 20.1071C11.0121 20.1071 11.3761 20.4711 11.3761 20.9196Z" fill="#F9FAF5"/>
</svg>
