<svg width="30" height="30" viewBox="0 0 30 30" fill="none" xmlns="http://www.w3.org/2000/svg">
<path d="M14.9998 1.7998C7.71674 1.7998 1.7998 7.71674 1.7998 14.9998C1.7998 21.6113 6.67632 27.0828 13.0275 28.0369L13.7166 28.1412V17.7396H10.5982V15.6279H13.7166V12.8236C13.7166 11.0968 14.131 9.95945 14.817 9.2459C15.503 8.53234 16.5166 8.17246 17.9271 8.17246C19.055 8.17246 19.4938 8.2408 19.9111 8.29199V10.0205H18.4428C17.6096 10.0205 16.9261 10.4853 16.5713 11.1045C16.2165 11.7236 16.1061 12.4629 16.1061 13.2162V15.6268H19.7799L19.4529 17.7385H16.1061V28.1576L16.7869 28.065C23.2284 27.1914 28.1998 21.6759 28.1998 14.9998C28.1998 7.71674 22.2829 1.7998 14.9998 1.7998ZM14.9998 2.9998C21.6343 2.9998 26.9998 8.36527 26.9998 14.9998C26.9998 20.8377 22.8213 25.6389 17.3061 26.7197V18.9385H20.4818L21.1791 14.4268H17.3061V13.2162C17.3061 12.5937 17.4199 12.036 17.6119 11.701C17.8039 11.366 17.9889 11.2205 18.4428 11.2205H21.1111V7.20566L20.5908 7.13535C20.2309 7.08666 19.4093 6.97246 17.9271 6.97246C16.3053 6.97246 14.9131 7.41427 13.9521 8.41387C12.9912 9.41346 12.5166 10.9019 12.5166 12.8236V14.4279H9.39824V18.9396H12.5166V26.6822C7.09 25.5327 2.9998 20.7745 2.9998 14.9998C2.9998 8.36527 8.36527 2.9998 14.9998 2.9998Z" fill="#5F0C65"/>
</svg>
