<svg width="30" height="30" viewBox="0 0 30 30" fill="none" xmlns="http://www.w3.org/2000/svg">
<path d="M5.3999 2.3999C3.75019 2.3999 2.3999 3.75019 2.3999 5.3999V24.5999C2.3999 26.2496 3.75019 27.5999 5.3999 27.5999H24.5999C26.2496 27.5999 27.5999 26.2496 27.5999 24.5999V5.3999C27.5999 3.75019 26.2496 2.3999 24.5999 2.3999H5.3999ZM5.3999 3.5999H24.5999C25.601 3.5999 26.3999 4.39881 26.3999 5.3999V24.5999C26.3999 25.601 25.601 26.3999 24.5999 26.3999H5.3999C4.39881 26.3999 3.5999 25.601 3.5999 24.5999V5.3999C3.5999 4.39881 4.39881 3.5999 5.3999 3.5999ZM8.3999 6.60693C7.74277 6.60693 7.15143 6.80335 6.71357 7.17178C6.27571 7.54021 6.00693 8.09061 6.00693 8.67998C6.00693 9.80029 6.97867 10.6737 8.21475 10.7601L8.21709 10.7612C8.27599 10.7813 8.33768 10.792 8.3999 10.7929C9.76371 10.7929 10.7929 9.83755 10.7929 8.67998C10.7928 8.66943 10.7924 8.65887 10.7917 8.64834C10.7306 7.5082 9.71417 6.60693 8.3999 6.60693ZM8.3999 7.79287C9.23524 7.79287 9.56508 8.16593 9.60107 8.69522C9.59378 9.20896 9.27596 9.60693 8.3999 9.60693C7.56866 9.60693 7.19287 9.18124 7.19287 8.67998C7.19287 8.42935 7.28432 8.24048 7.47647 8.07881C7.6686 7.91714 7.97704 7.79287 8.3999 7.79287ZM6.5999 11.3999C6.44078 11.3999 6.28817 11.4631 6.17566 11.5757C6.06314 11.6882 5.99992 11.8408 5.9999 11.9999V23.3999C5.99992 23.559 6.06314 23.7116 6.17566 23.8242C6.28817 23.9367 6.44078 23.9999 6.5999 23.9999H10.1999C10.359 23.9999 10.5116 23.9367 10.6241 23.8242C10.7367 23.7116 10.7999 23.559 10.7999 23.3999V19.8808V11.9999C10.7999 11.8408 10.7367 11.6882 10.6241 11.5757C10.5116 11.4631 10.359 11.3999 10.1999 11.3999H6.5999ZM11.9999 11.3999C11.8408 11.3999 11.6882 11.4631 11.5757 11.5757C11.4631 11.6882 11.3999 11.8408 11.3999 11.9999V23.3999C11.3999 23.559 11.4631 23.7116 11.5757 23.8242C11.6882 23.9367 11.8408 23.9999 11.9999 23.9999H15.5999C15.759 23.9999 15.9116 23.9367 16.0241 23.8242C16.1367 23.7116 16.1999 23.559 16.1999 23.3999V17.3999C16.1999 16.9021 16.3357 16.4069 16.5749 16.0827C16.8141 15.7585 17.1158 15.5639 17.6894 15.5741C18.2808 15.5843 18.5939 15.7869 18.8308 16.105C19.0676 16.4231 19.1999 16.8999 19.1999 17.3999V23.3999C19.1999 23.559 19.2631 23.7116 19.3757 23.8242C19.4882 23.9367 19.6408 23.9999 19.7999 23.9999H23.3999C23.559 23.9999 23.7116 23.9367 23.8242 23.8242C23.9367 23.7116 23.9999 23.559 23.9999 23.3999V16.9569C23.9999 15.18 23.4736 13.7725 22.5714 12.8202C21.6692 11.8679 20.4144 11.3999 19.0874 11.3999C17.8262 11.3999 16.8664 11.8228 16.1999 12.2542V11.9999C16.1999 11.8408 16.1367 11.6882 16.0241 11.5757C15.9116 11.4631 15.759 11.3999 15.5999 11.3999H11.9999ZM7.1999 12.5999H9.5999V19.8808V22.7999H7.1999V12.5999ZM12.5999 12.5999H14.9999V13.5362C14.9999 13.662 15.0395 13.7847 15.113 13.8867C15.1866 13.9888 15.2903 14.0652 15.4097 14.1051C15.529 14.145 15.6578 14.1464 15.778 14.1091C15.8981 14.0718 16.0035 13.9976 16.0792 13.8972C16.0792 13.8972 17.0214 12.5999 19.0874 12.5999C20.1394 12.5999 21.0415 12.9495 21.7007 13.6452C22.3598 14.341 22.7999 15.4129 22.7999 16.9569V22.7999H20.3999V17.3999C20.3999 16.6999 20.2322 15.9762 19.794 15.3878C19.3559 14.7994 18.619 14.3897 17.7105 14.3741C16.7972 14.3579 16.0484 14.7761 15.6093 15.3714C15.1701 15.9667 14.9999 16.6977 14.9999 17.3999V22.7999H12.5999V12.5999Z" fill="#5F0C65"/>
</svg>
